<svg xmlns="http://www.w3.org/2000/svg" viewBox="0 0 116.4 134.41"><defs><clipPath id="a" transform="translate(-1 -1.16)"><circle cx="59.2" cy="41.23" r="10" fill="none"/></clipPath></defs><g fill="#fff" stroke="#000"><path stroke-width="2" d="M58.2 1.16L1 34.19v66.04l57.2 33.02 57.2-33.02V34.19L58.2 1.16z"/><path stroke-width=".75" d="M58.2 4.46L3.86 35.84v62.74l54.34 31.37 54.34-31.37V35.84L58.2 4.46z"/></g><path d="M27.89 90.36c-.14.48-.28.89-.42 1.24a9.2 9.2 0 0 1-.41.92 4.4 4.4 0 0 1-1.58 1.65 5.14 5.14 0 0 1-4.34.42A5.51 5.51 0 0 1 18 92.5a4.56 4.56 0 0 1-.7-3.55l2.42.71a2.81 2.81 0 0 0 .12 1.28 2.75 2.75 0 0 0 1.91 1.58c1.76.52 2.95-.27 3.56-2.35l.41-1.4a4.75 4.75 0 0 1-3.72.44 4.69 4.69 0 0 1-3-2.51 5.6 5.6 0 0 1-.27-4.16 5.9 5.9 0 0 1 2.37-3.36 4.65 4.65 0 0 1 4.1-.56 4.42 4.42 0 0 1 2.8 2.37l.36-1.15 2.41.7zM27 84.92a3.45 3.45 0 0 0-.13-2.57A2.85 2.85 0 0 0 25 80.84a2.73 2.73 0 0 0-2.45.34 3.68 3.68 0 0 0-1.39 2.06 3.61 3.61 0 0 0 .06 2.46 2.74 2.74 0 0 0 1.88 1.59 2.8 2.8 0 0 0 2.47-.33A3.52 3.52 0 0 0 27 84.92zM42.06 93.42c-.1.49-.2.91-.3 1.27a8.52 8.52 0 0 1-.34 1A4.32 4.32 0 0 1 40 97.42a5.15 5.15 0 0 1-4.29.81 5.53 5.53 0 0 1-3.29-1.81 4.52 4.52 0 0 1-1-3.47l2.47.49a2.55 2.55 0 0 0 .24 1.26 2.72 2.72 0 0 0 2 1.41q2.7.54 3.34-2.65l.28-1.43a4.78 4.78 0 0 1-3.67.76 4.71 4.71 0 0 1-3.26-2.23 5.57 5.57 0 0 1-.63-4.12 5.91 5.91 0 0 1 2.1-3.6 4.66 4.66 0 0 1 4-.92 4.43 4.43 0 0 1 3.06 2.11l.23-1.16 2.46.5zm-1.39-5.34a3.44 3.44 0 0 0-.35-2.55 2.83 2.83 0 0 0-2-1.35 2.73 2.73 0 0 0-2.41.56 4 4 0 0 0-.91 4.61 2.72 2.72 0 0 0 2 1.42 2.8 2.8 0 0 0 2.43-.54 3.49 3.49 0 0 0 1.24-2.15zM47.15 83.76l2.49.24-.09.93a4.69 4.69 0 0 1 1.32-.83 2.91 2.91 0 0 1 1.31-.15 4.2 4.2 0 0 1 2 .83l-1.35 2.06a2.39 2.39 0 0 0-1.34-.63c-1.36-.13-2.14.79-2.33 2.77l-.53 5.4-2.5-.24zM65.36 90.21l-7.79.09a3.17 3.17 0 0 0 .9 2 2.69 2.69 0 0 0 2 .73 2.65 2.65 0 0 0 1.53-.41 6.18 6.18 0 0 0 1.36-1.6l2.13 1.11a7.82 7.82 0 0 1-1 1.39 5.43 5.43 0 0 1-1.16 1 4.87 4.87 0 0 1-1.33.52 7 7 0 0 1-1.57.19 5.23 5.23 0 0 1-3.92-1.46 5.55 5.55 0 0 1-1.51-4 5.67 5.67 0 0 1 1.38-4 5.6 5.6 0 0 1 7.61-.12 5.66 5.66 0 0 1 1.42 4zm-2.6-2a2.38 2.38 0 0 0-2.55-1.9 2.67 2.67 0 0 0-.86.14 2.44 2.44 0 0 0-.73.39 2.52 2.52 0 0 0-.55.62 2.58 2.58 0 0 0-.35.81zM72.65 99.84l-2.49.35-2.2-16 2.48-.35.16 1.13a4.71 4.71 0 0 1 3.14-1.88 4.81 4.81 0 0 1 3.87 1.07A6 6 0 0 1 78.7 92a4.87 4.87 0 0 1-7 1zm4.43-11.57a3.54 3.54 0 0 0-1.18-2.31 2.78 2.78 0 0 0-2.27-.65 2.9 2.9 0 0 0-2.1 1.22 3.47 3.47 0 0 0-.53 2.53 3.51 3.51 0 0 0 1.19 2.29 2.84 2.84 0 0 0 2.33.62 2.8 2.8 0 0 0 2-1.23 3.43 3.43 0 0 0 .56-2.46zM92.36 85.56l-7.59 1.75a3.14 3.14 0 0 0 1.31 1.8 2.67 2.67 0 0 0 2.09.29 2.62 2.62 0 0 0 1.42-.77 6.26 6.26 0 0 0 1-1.85l2.32.63a8.25 8.25 0 0 1-.7 1.58 5.51 5.51 0 0 1-.93 1.18 4.71 4.71 0 0 1-1.19.83 6.62 6.62 0 0 1-1.5.52 5.21 5.21 0 0 1-4.14-.58 5.57 5.57 0 0 1-2.34-3.59 5.65 5.65 0 0 1 .49-4.23 5 5 0 0 1 3.4-2.34 5 5 0 0 1 4 .59A5.64 5.64 0 0 1 92.26 85zm-3-1.35a2.38 2.38 0 0 0-2.9-1.31 2.5 2.5 0 0 0-.81.32 2.68 2.68 0 0 0-.62.54 2.45 2.45 0 0 0-.41.72 2.68 2.68 0 0 0-.17.86zM94 71.08l4.81 17.5-2.42.66-4.78-17.49z"/><g><path d="M39.84 53.46a11.86 11.86 0 0 1 10 .61 7.07 7.07 0 0 1 1.38 1c2.55 2.38 1.5 5.19-1.9 6.44l9.77 9.56c.41.4.15.76-.57.81a2.92 2.92 0 0 1-2-.63l-9.31-9.23c-.21 0-.42.06-.64.07-3.21.26-6.58-.79-8.34-2.59-1.96-2.07-1.38-4.66 1.61-6.04z" opacity=".25"/><rect x="56.72" y="45.03" width="2.96" height="27.13" rx="1.48" ry="1.48" fill="#2b2b2b"/><circle cx="58.2" cy="40.07" r="10" fill="#cc1d26"/><g clip-path="url(#a)"><circle cx="63.43" cy="34.84" r="15.23" fill="#ed2024"/></g><circle cx="61.21" cy="37.06" r="1.5" fill="#fff"/><path d="M57.16 70.68V46.51a1.48 1.48 0 0 1 1.26-1.46h-.22a1.48 1.48 0 0 0-1.48 1.48v24.15a1.48 1.48 0 0 0 1.48 1.48h.22a1.48 1.48 0 0 1-1.26-1.48z"/><circle cx="58.2" cy="40.07" r="10" fill="#cc1d26"/><g clip-path="url(#a)"><circle cx="63.43" cy="34.84" r="15.23" fill="#ed2024"/></g><circle cx="61.21" cy="37.06" r="1.5" fill="#fff"/></g></svg>